<svg width="64" height="64" viewBox="0 0 64 64" fill="none" xmlns="http://www.w3.org/2000/svg">
    <circle cx="32" cy="32" r="31.5" fill="#040E75" stroke="white" />
    <path
        d="M18.64 38V28.6H20.76L21.02 29.58C21.2067 29.1933 21.4867 28.9067 21.86 28.72C22.2467 28.5333 22.6933 28.44 23.2 28.44C23.72 28.44 24.1267 28.5267 24.42 28.7C24.7267 28.86 24.9467 29.0667 25.08 29.32C25.2133 29.5733 25.2867 29.8333 25.3 30.1L24.76 30.6C24.88 29.9733 25.0733 29.5067 25.34 29.2C25.62 28.8933 25.9333 28.6933 26.28 28.6C26.6267 28.4933 26.9667 28.44 27.3 28.44C27.9 28.44 28.3533 28.5467 28.66 28.76C28.9667 28.9733 29.1667 29.24 29.26 29.56C29.3667 29.8667 29.42 30.1667 29.42 30.46V38H26.82V31.44C26.82 31.0933 26.76 30.8533 26.64 30.72C26.5333 30.5867 26.3533 30.52 26.1 30.52C25.86 30.52 25.6733 30.5867 25.54 30.72C25.4067 30.8533 25.34 31.0933 25.34 31.44V38H22.74V31.34C22.74 31.06 22.68 30.8533 22.56 30.72C22.44 30.5867 22.2467 30.52 21.98 30.52C21.7533 30.52 21.58 30.58 21.46 30.7C21.34 30.82 21.2667 31 21.24 31.24V38H18.64ZM33.8322 38.1C32.9122 38.1 32.2122 37.9933 31.7322 37.78C31.2522 37.5667 30.9255 37.2733 30.7522 36.9C30.5789 36.5267 30.4922 36.1133 30.4922 35.66V30.92C30.4922 30.4533 30.5789 30.04 30.7522 29.68C30.9255 29.3067 31.2522 29.0133 31.7322 28.8C32.2122 28.5867 32.9255 28.48 33.8722 28.48C34.6855 28.48 35.3322 28.58 35.8122 28.78C36.3055 28.98 36.6589 29.26 36.8722 29.62C37.0855 29.98 37.1922 30.4 37.1922 30.88V32.4L34.5922 32.58V31.36C34.5922 31.1733 34.5389 30.98 34.4322 30.78C34.3389 30.58 34.1455 30.48 33.8522 30.48C33.5455 30.48 33.3389 30.58 33.2322 30.78C33.1389 30.98 33.0922 31.1733 33.0922 31.36V35.16C33.0922 35.3467 33.1389 35.5333 33.2322 35.72C33.3389 35.8933 33.5322 35.98 33.8122 35.98C34.1322 35.98 34.3389 35.8933 34.4322 35.72C34.5389 35.5333 34.5922 35.3333 34.5922 35.12V34.08L37.1922 33.88V35.66C37.1922 36.14 37.0855 36.5667 36.8722 36.94C36.6589 37.3 36.3055 37.5867 35.8122 37.8C35.3322 38 34.6722 38.1 33.8322 38.1ZM44.8894 28.6V41.14H42.2894V38H40.5894C39.976 38 39.496 37.9067 39.1494 37.72C38.8027 37.5333 38.556 37.2667 38.4094 36.92C38.2627 36.56 38.1894 36.12 38.1894 35.6V31.44C38.1894 30.72 38.216 30.1533 38.2694 29.74C38.336 29.3267 38.5027 29.0333 38.7694 28.86C39.0494 28.6867 39.5094 28.6 40.1494 28.6H44.8894ZM42.2894 30.68H41.4494C41.2894 30.68 41.156 30.7 41.0494 30.74C40.956 30.7667 40.8894 30.84 40.8494 30.96C40.8094 31.08 40.7894 31.2733 40.7894 31.54V35.16C40.7894 35.3333 40.8027 35.48 40.8294 35.6C40.8694 35.7067 40.9294 35.7867 41.0094 35.84C41.1027 35.8933 41.2294 35.92 41.3894 35.92H42.2894V30.68Z"
        fill="white" />
</svg>